# xmcd
#
# Track frame offsets: 
#        300
#        20449
#        30860
#        45521
#        65280
#        85644
#        95797
#        107258
#        123515
#        137630
#        147027
#        160971
#        182191
#        191743
#        202436
#        215382
#
# Disc length: 2984 seconds
#
# Revision: 0
# Processed by: cddbd v1.5.2PL0 Copyright (c) Steve Scherf et al.
# Submitted via: ExactAudioCopy v1.0b1
#
DISCID=de0ba410
DTITLE=Dana Gillespie - Box Of Surprises
DYEAR=1969
DGENRE=General Blues
TTITLE0=Box Of Surprises
TTITLE1=Like I'm A Clown
TTITLE2=Taffy
TTITLE3=When Darkness Fell
TTITLE4=For David, The Next Day
TTITLE5=If You're Dreaming
TTITLE6=Foolish Seasons
TTITLE7=Grecian Ode
TTITLE8=By Chasing Dreams
TTITLE9=I Was A Book
TTITLE10=Describing You
TTITLE11=I Would Cry
TTITLE12=Thank You Boy
TTITLE13=You're Heartbreak Man
TTITLE14=Pay You Back With Interest
TTITLE15=Adam Can You Beat That
EXTD=
EXTT0=
EXTT1=
EXTT2=
EXTT3=
EXTT4=
EXTT5=
EXTT6=
EXTT7=
EXTT8=
EXTT9=
EXTT10=
EXTT11=
EXTT12=
EXTT13=
EXTT14=
EXTT15=
PLAYORDER=
